# xmcd
# Copyright (C) 1995-1998 Ti Kan
#
# Track frame offsets:
#       150
#       16457
#       32927
#       54362
#       56712
#       75882
#       93207
#       110260
#       130735
#       152145
#       173675
#
# Disc length: 2742 seconds
#
# Revision: 0
# Processed by: cddbd v1.4b42PL1 Copyright (c) Steve Scherf et al.
# Submitted via: CD-Transfer v1.0
#
DISCID=7b0ab40b
DTITLE=silver inc - blast-o-rama
DYEAR=2000
DGENRE=
TTITLE0=tic-tac
TTITLE1=mothaship
TTITLE2=the wave
TTITLE3=prearnolic
TTITLE4=soulflight
TTITLE5=vision
TTITLE6=silvergod
TTITLE7=definition
TTITLE8=superpose
TTITLE9=skylift
TTITLE10=realize
EXTD=
EXTT0=
EXTT1=
EXTT2=
EXTT3=
EXTT4=
EXTT5=
EXTT6=
EXTT7=
EXTT8=
EXTT9=
EXTT10=
PLAYORDER=
